<svg xmlns="http://www.w3.org/2000/svg" width="1200" height="630" viewBox="0 0 1200 630" role="img" aria-label="Club Cavallino Ibérico">
  <defs>
    <linearGradient id="fondo" x1="0" y1="0" x2="1" y2="1">
      <stop offset="0" stop-color="#0A0A0B"/>
      <stop offset="0.55" stop-color="#160809"/>
      <stop offset="1" stop-color="#0A0A0B"/>
    </linearGradient>
    <radialGradient id="brillo" cx="0.78" cy="0.18" r="0.62">
      <stop offset="0" stop-color="#DC0000" stop-opacity="0.34"/>
      <stop offset="1" stop-color="#DC0000" stop-opacity="0"/>
    </radialGradient>
  </defs>

  <rect width="1200" height="630" fill="url(#fondo)"/>
  <rect width="1200" height="630" fill="url(#brillo)"/>

  <!-- Escudo del club -->
  <g transform="translate(92,74) scale(1.75)">
    <path d="M1 1h32v27.5L17 39 1 28.5z" fill="#131316" stroke="#3A3A42" stroke-width="1.4"/>
    <path d="M17 6.5l-1.6 3.4-2.7-1.1 1.1 3.2-3.4 1.5 2.9 1.6-3.3 5.4 3.6-1.4-.6 5.9 3-4.6 1.3 6 1.6-6.4 3.4 4.2-.9-6 3.6.9-3-4.6 2.6-1.6-3.2-1.4 1-3.1-2.7 1z" fill="#DC0000"/>
    <path d="M13.5 30.5h7" stroke="#FFD200" stroke-width="1.5"/>
  </g>

  <text x="196" y="112" font-family="'Space Grotesk',Segoe UI,sans-serif" font-size="27" font-weight="600" letter-spacing="4.6" fill="#F5F5F7">CAVALLINO</text>
  <text x="196" y="139" font-family="'JetBrains Mono',Consolas,monospace" font-size="14" letter-spacing="9" fill="#90909A">IBÉRICO</text>

  <line x1="92" y1="196" x2="1108" y2="196" stroke="#2A2A30" stroke-width="1"/>

  <text x="92" y="300" font-family="'Space Grotesk',Segoe UI,sans-serif" font-size="76" font-weight="500" letter-spacing="-2.4" fill="#F5F5F7">El club de</text>
  <text x="92" y="390" font-family="Georgia,'Times New Roman',serif" font-style="italic" font-size="80" fill="#FF2800">propietarios</text>
  <text x="92" y="480" font-family="'Space Grotesk',Segoe UI,sans-serif" font-size="76" font-weight="500" letter-spacing="-2.4" fill="#F5F5F7">que conduce.</text>

  <line x1="92" y1="536" x2="1108" y2="536" stroke="#2A2A30" stroke-width="1"/>
  <text x="92" y="576" font-family="'JetBrains Mono',Consolas,monospace" font-size="17" letter-spacing="3.4" fill="#90909A">FUNDADO EN 1988</text>
  <text x="358" y="576" font-family="'JetBrains Mono',Consolas,monospace" font-size="17" letter-spacing="3.4" fill="#FFD200">·</text>
  <text x="386" y="576" font-family="'JetBrains Mono',Consolas,monospace" font-size="17" letter-spacing="3.4" fill="#90909A">CLUB PRIVADO</text>
  <text x="614" y="576" font-family="'JetBrains Mono',Consolas,monospace" font-size="17" letter-spacing="3.4" fill="#FFD200">·</text>
  <text x="642" y="576" font-family="'JetBrains Mono',Consolas,monospace" font-size="17" letter-spacing="3.4" fill="#90909A">ACCESO POR INVITACIÓN</text>
</svg>
